<svg xmlns="http://www.w3.org/2000/svg" width="440" height="660" viewBox="0 0 440 660"><rect width="100%" height="100%" fill="#DDDDDD"/><path fill="#999999" d="M94.54 335.25h12.98V321.3q0-1.98.26-4.37l-13.24 18.32Zm19.32 0h5.37v4.22q0 .59-.38 1.02-.39.43-1.1.43h-3.89v10.41h-6.34v-10.41h-18q-.74 0-1.3-.46t-.7-1.14l-.77-3.68 20.21-27h6.9v26.61Zm14.9 0h12.98V321.3q0-1.98.26-4.37l-13.24 18.32Zm19.32 0h5.37v4.22q0 .59-.38 1.02-.39.43-1.1.43h-3.89v10.41h-6.34v-10.41h-18q-.74 0-1.3-.46t-.7-1.14l-.77-3.68 20.21-27h6.9v26.61ZM187.7 330q0 5.58-1.2 9.69-1.19 4.12-3.3 6.8-2.11 2.69-4.99 4-2.87 1.31-6.21 1.31-3.33 0-6.18-1.31-2.84-1.31-4.94-4-2.09-2.68-3.27-6.8-1.18-4.11-1.18-9.69 0-5.6 1.18-9.7t3.27-6.79q2.1-2.68 4.94-4 2.85-1.31 6.18-1.31 3.34 0 6.21 1.31 2.88 1.32 4.99 4 2.11 2.69 3.3 6.79 1.2 4.1 1.2 9.7Zm-7.52 0q0-4.63-.68-7.67t-1.82-4.84q-1.13-1.8-2.61-2.52-1.47-.72-3.07-.72-1.56 0-3.02.72t-2.58 2.52q-1.12 1.8-1.79 4.84-.66 3.04-.66 7.67t.66 7.67q.67 3.04 1.79 4.84 1.12 1.8 2.58 2.52t3.02.72q1.6 0 3.07-.72 1.48-.72 2.61-2.52 1.14-1.8 1.82-4.84.68-3.04.68-7.67Zm54.36 11.57-3.86 3.8-10-10-10.09 10.06-3.86-3.81 10.08-10.11-9.61-9.62 3.83-3.84 9.62 9.62 9.56-9.56 3.89 3.84-9.59 9.59 10.03 10.03Zm45.58-32.9-12.65 15.49-1.48 1.83q1.24-.62 2.67-.96 1.43-.34 3.08-.34 2.42 0 4.71.8 2.29.79 4.03 2.4 1.74 1.61 2.8 4 1.06 2.39 1.06 5.57 0 2.98-1.09 5.6-1.09 2.61-3.07 4.55-1.98 1.95-4.76 3.07-2.79 1.12-6.15 1.12-3.43 0-6.14-1.09-2.71-1.09-4.63-3.05-1.92-1.96-2.94-4.72-1.01-2.76-1.01-6.12 0-3.01 1.22-6.18 1.22-3.18 3.79-6.6l10.18-13.66q.53-.7 1.55-1.21 1.01-.5 2.34-.5h6.49Zm-11 37.17q1.74 0 3.2-.59 1.46-.59 2.51-1.65 1.04-1.06 1.63-2.49.59-1.43.59-3.11 0-1.83-.56-3.29t-1.59-2.48q-1.03-1.02-2.48-1.55-1.44-.53-3.18-.53-1.74 0-3.16.59-1.42.59-2.42 1.64-1 1.04-1.56 2.47-.56 1.43-.56 3.09 0 1.77.48 3.23.49 1.46 1.45 2.49.96 1.03 2.37 1.61 1.42.57 3.28.57Zm45.22-37.17-12.65 15.49-1.48 1.83q1.24-.62 2.67-.96 1.43-.34 3.08-.34 2.42 0 4.71.8 2.29.79 4.03 2.4 1.74 1.61 2.8 4 1.06 2.39 1.06 5.57 0 2.98-1.09 5.6-1.09 2.61-3.07 4.55-1.98 1.95-4.76 3.07-2.79 1.12-6.15 1.12-3.43 0-6.14-1.09-2.71-1.09-4.63-3.05-1.92-1.96-2.94-4.72-1.01-2.76-1.01-6.12 0-3.01 1.22-6.18 1.22-3.18 3.79-6.6l10.18-13.66q.53-.7 1.55-1.21 1.01-.5 2.34-.5h6.49Zm-11 37.17q1.74 0 3.2-.59 1.46-.59 2.51-1.65 1.04-1.06 1.63-2.49.59-1.43.59-3.11 0-1.83-.56-3.29t-1.59-2.48q-1.03-1.02-2.48-1.55-1.44-.53-3.18-.53-1.74 0-3.16.59-1.42.59-2.42 1.64-1 1.04-1.56 2.47-.56 1.43-.56 3.09 0 1.77.48 3.23.49 1.46 1.45 2.49.96 1.03 2.37 1.61 1.42.57 3.28.57ZM353.25 330q0 5.58-1.19 9.69-1.2 4.12-3.31 6.8-2.11 2.69-4.98 4-2.88 1.31-6.21 1.31-3.34 0-6.18-1.31-2.85-1.31-4.94-4-2.1-2.68-3.28-6.8-1.18-4.11-1.18-9.69 0-5.6 1.18-9.7t3.28-6.79q2.09-2.68 4.94-4 2.84-1.31 6.18-1.31 3.33 0 6.21 1.31 2.87 1.32 4.98 4 2.11 2.69 3.31 6.79 1.19 4.1 1.19 9.7Zm-7.52 0q0-4.63-.68-7.67t-1.81-4.84q-1.14-1.8-2.61-2.52-1.48-.72-3.07-.72-1.57 0-3.03.72-1.46.72-2.58 2.52t-1.78 4.84q-.67 3.04-.67 7.67t.67 7.67q.66 3.04 1.78 4.84 1.12 1.8 2.58 2.52t3.03.72q1.59 0 3.07-.72 1.47-.72 2.61-2.52 1.13-1.8 1.81-4.84.68-3.04.68-7.67Z"/></svg>